<svg width="561" height="561" viewBox="0 0 561 561" fill="none" xmlns="http://www.w3.org/2000/svg">
<path d="M510.443 409.267C506.299 405.123 504.997 398.664 507.658 393.075C540.411 324.277 540.805 245.181 508.735 176.066C505.427 168.931 508.526 160.467 515.661 157.156C522.795 153.845 531.26 156.944 534.574 164.082C570.222 240.912 569.786 328.841 533.376 405.318C529.997 412.418 521.497 415.434 514.398 412.055C512.885 411.334 511.562 410.386 510.443 409.267Z" fill="#001AA5"/>
<path d="M159.996 49.416C158.845 48.2653 157.877 46.8999 157.15 45.339C153.842 38.2045 156.941 29.7365 164.076 26.4256C240.906 -9.22165 328.835 -8.78575 405.312 27.6244C412.415 30.9994 415.431 39.4993 412.049 46.6051C408.668 53.7044 400.171 56.7204 393.072 53.3422C324.274 20.5891 245.178 20.1949 176.063 52.2653C170.489 54.8518 164.105 53.5249 159.996 49.416Z" fill="#001AA5"/>
<path d="M29.2718 401.001C28.1212 399.851 27.1532 398.485 26.4257 396.924C-9.22164 320.094 -8.78576 232.165 27.6244 155.688C31.0057 148.589 39.5025 145.569 46.6019 148.951C53.698 152.329 56.7172 160.826 53.339 167.928C20.586 236.726 20.1917 315.822 52.2621 384.937C55.5698 392.072 52.4704 400.54 45.3358 403.851C39.7653 406.434 33.3776 405.107 29.2718 401.001Z" fill="#001AA5"/>
<path d="M151.733 530.59C147.588 526.446 146.284 519.991 148.947 514.398C152.329 507.295 160.826 504.28 167.925 507.661C196.707 521.363 227.498 529.459 259.447 531.722C267.364 532.283 275.405 532.478 283.354 532.299C318.78 531.5 352.956 523.574 384.931 508.738C392.065 505.427 400.533 508.526 403.844 515.661C407.155 522.795 404.055 531.263 396.921 534.574C361.363 551.074 323.37 559.888 283.995 560.776C275.165 560.975 266.229 560.76 257.434 560.135C221.925 557.619 187.691 548.616 155.685 533.379C154.175 532.658 152.851 531.709 151.733 530.59Z" fill="#001AA5"/>
<path d="M512.776 68.3743L384.267 196.88L364.113 176.726L379.171 161.707L403.703 137.175C343.203 85.1306 257.418 77.6563 189.636 114.755C184.088 117.775 177.22 116.832 172.768 112.339C166.05 105.621 167.637 94.2973 175.976 89.7684C254.553 46.743 354.226 55.839 423.86 116.98L476.244 64.5954L492.661 48.2141C492.889 53.2718 494.924 58.291 498.812 62.2172C502.661 66.073 507.683 68.1499 512.776 68.3743Z" fill="#001AA5"/>
<path d="M542.933 18.0667C526.818 1.95139 500.664 1.95139 484.549 18.0667C471.981 30.634 469.225 49.3166 476.244 64.6018C478.244 68.903 481.001 72.9031 484.549 76.4511C488.097 79.9992 492.097 82.7556 496.398 84.7556C511.683 91.7748 530.366 89.0216 542.933 76.4511C559.048 60.3358 559.048 34.182 542.933 18.0667ZM528.702 62.2236C524.324 66.6018 518.513 68.6402 512.776 68.3742C507.68 68.1466 502.661 66.0729 498.811 62.2236C494.924 58.2973 492.885 53.2781 492.661 48.2205C492.398 42.4833 494.433 36.6724 498.811 32.2942C507.039 24.0282 520.436 24.0282 528.702 32.2942C536.968 40.5602 536.968 53.9576 528.702 62.2236Z" fill="#001AA5"/>
<path d="M385.1 471.296C355.549 487.523 322.45 496.696 287.992 497.866L287.918 497.943L282.03 498.017C251.649 498.244 222.136 492.241 194.284 480.28C173.377 471.222 154.204 459.033 137.143 444.011L68.342 512.812C68.1529 507.716 66.1145 502.696 62.1914 498.812C58.3036 494.885 53.2844 492.847 48.1882 492.661L64.6049 476.28L116.951 423.934L137.143 403.742L161.675 379.21L176.733 364.114L181.563 368.944L191.867 379.248L196.886 384.267L181.752 399.363L157.297 423.818C171.826 436.312 187.979 446.501 205.569 454.088C228.893 464.164 253.614 469.334 279.05 469.523L281.88 469.485C313.62 469.257 344.152 461.257 371.286 446.35C376.873 443.293 383.78 444.2 388.27 448.69C394.988 455.408 393.402 466.693 385.1 471.296Z" fill="#001AA5"/>
<path d="M84.7588 496.395C82.7588 492.129 80.0024 488.094 76.4543 484.546C72.9062 480.998 68.8678 478.244 64.605 476.28C49.3583 469.222 30.6371 471.978 18.0699 484.546C1.95457 500.661 1.95457 526.815 18.0699 542.93C34.1852 559.045 60.339 559.045 76.4543 542.93C89.0215 530.363 91.778 511.642 84.7588 496.395ZM62.1883 528.699C53.9608 536.965 40.5634 536.965 32.2974 528.699C24.0314 520.433 24.0314 507.036 32.2974 498.808C36.6756 494.43 42.4865 492.392 48.1852 492.658C53.2813 492.847 58.3005 494.885 62.1883 498.808C66.1146 502.696 68.153 507.715 68.3389 512.808C68.605 518.51 66.5665 524.321 62.1883 528.699Z" fill="#001AA5"/>
<path d="M146.842 146.877C111.515 182.204 91.8518 229.226 91.4768 279.197C91.2877 305.2 96.6114 331.543 106.913 355.434C109.291 360.905 111.858 366.229 114.688 371.399C117.746 376.947 116.765 383.816 112.31 388.271C105.592 395.027 94.2717 393.367 89.7044 385.024C86.4223 379.098 83.4384 372.985 80.7205 366.719C68.7205 338.867 62.7558 309.316 63.0218 278.973C63.4 226.249 82.4191 176.393 116.954 137.105L48.227 68.3777C53.3231 68.1501 58.3423 66.0764 62.1917 62.227C66.1179 58.3008 68.1564 53.2815 68.3423 48.2239L84.7589 64.6052L157.297 137.143C153.711 140.233 150.236 143.48 146.842 146.877Z" fill="#001AA5"/>
<path d="M76.4543 18.0667C60.339 1.95139 34.1852 1.95139 18.0699 18.0667C1.95457 34.182 1.95457 60.3358 18.0699 76.4511C30.6371 89.0184 49.3583 91.7748 64.605 84.7556C68.871 82.7556 72.9062 79.9639 76.4543 76.4511C80.0024 72.9031 82.7556 68.903 84.7588 64.6018C91.778 49.3166 89.0215 30.634 76.4543 18.0667ZM62.1883 62.2236C58.339 66.0729 53.3198 68.1499 48.2236 68.3742C42.4865 68.637 36.6756 66.6018 32.2974 62.2236C24.0314 53.9576 24.0314 40.5602 32.2974 32.2942C40.5634 24.0282 53.9608 24.0282 62.1883 32.2942C66.5665 36.6724 68.605 42.4833 68.3389 48.2205C68.1498 53.2781 66.1146 58.2973 62.1883 62.2236Z" fill="#001AA5"/>
<path d="M512.776 492.658C507.719 492.847 502.699 494.885 498.776 498.808C494.927 502.658 492.85 507.677 492.626 512.773L403.671 423.818C407.293 420.761 410.767 417.517 414.126 414.158C474.85 353.434 485.568 261.383 446.28 189.598C445.11 187.447 444.543 185.108 444.543 182.768C444.543 179.108 445.94 175.483 448.693 172.73C455.373 166.05 466.696 167.598 471.225 175.899C514.289 254.476 505.193 354.226 444.014 423.895L496.36 476.241L512.776 492.658Z" fill="#001AA5"/>
<path d="M542.933 484.542C530.366 471.975 511.645 469.219 496.36 476.241C492.094 478.241 488.055 480.998 484.546 484.542C481.036 488.087 478.244 492.129 476.241 496.392C469.222 511.638 471.975 530.36 484.546 542.927C500.661 559.042 526.815 559.042 542.93 542.927C559.048 526.815 559.049 500.658 542.933 484.542ZM528.702 528.699C520.436 536.965 507.039 536.965 498.773 528.699C494.395 524.321 492.356 518.51 492.623 512.773C492.85 507.677 494.924 502.658 498.773 498.808C502.699 494.882 507.719 492.844 512.773 492.658C518.51 492.395 524.321 494.43 528.699 498.808C536.968 507.036 536.968 520.437 528.702 528.699Z" fill="#001AA5"/>
<path d="M399.29 181.861C393.251 174.54 386.495 167.784 379.174 161.707C352.415 139.403 318.033 126.005 280.521 126.005C195.338 126.005 126.009 195.297 126.009 280.518C126.009 316.937 138.576 351.508 161.675 379.21C164.467 382.568 167.412 385.815 170.505 388.985C174.092 392.645 177.864 396.12 181.752 399.363C194.207 409.741 208.207 418.046 223.492 424.123C241.646 431.37 260.819 434.991 280.518 434.991C300.181 434.991 319.354 431.37 337.505 424.123C357.546 416.197 375.36 404.347 390.53 388.985L394.607 384.796V384.645C420.687 356.113 434.988 319.392 434.988 280.518C434.991 243.04 421.594 208.659 399.29 181.861ZM327.017 397.665C312.223 403.552 296.559 406.533 280.521 406.533C264.444 406.533 248.781 403.552 233.986 397.665C224.342 393.822 215.114 388.738 206.672 382.601C219.832 353.71 248.428 335.146 280.344 335.085C280.393 335.085 280.437 335.091 280.482 335.091H280.521C280.566 335.091 280.611 335.085 280.659 335.085C312.578 335.146 341.19 353.732 354.37 382.652C345.953 388.761 336.787 393.78 327.017 397.665ZM254.402 280.518C254.402 266.101 266.101 254.402 280.518 254.402C294.896 254.402 306.598 266.101 306.598 280.518C306.598 287.425 303.918 293.915 299.088 298.822L298.671 299.239C296.219 301.617 293.274 303.54 290.143 304.787C287.05 305.995 283.764 306.598 280.482 306.598C277.2 306.598 273.915 305.995 270.857 304.787C267.537 303.466 264.441 301.389 261.912 298.822C257.082 293.915 254.402 287.386 254.402 280.518ZM376.117 362.488C376.107 362.498 376.097 362.511 376.088 362.52C363.985 340.985 345.19 324.492 322.966 315.174L323.017 315.123L323.469 314.671V314.181C330.979 304.594 335.094 292.857 335.094 280.514C335.094 250.396 310.601 225.902 280.521 225.902C250.402 225.902 225.909 250.396 225.909 280.514C225.909 293.232 230.249 305.309 238.213 315.046C238.223 315.059 238.232 315.069 238.242 315.078C215.909 324.383 197.031 340.924 184.903 362.543C184.896 362.537 184.89 362.53 184.883 362.52C165.22 339.687 154.502 310.889 154.502 280.508C154.502 210.989 211.037 154.454 280.518 154.454C349.998 154.454 406.498 210.989 406.498 280.508C406.498 310.899 395.818 339.694 376.117 362.488Z" fill="#001AA5"/>
</svg>
