<svg width="906" height="906" viewBox="0 0 906 906" fill="none" xmlns="http://www.w3.org/2000/svg">
<circle cx="453" cy="453" r="453" fill="white"/>
<path d="M711.225 597.605C706.571 592.951 705.109 585.698 708.097 579.421C744.878 502.161 745.321 413.337 709.306 335.721C705.592 327.709 709.072 318.203 717.084 314.485C725.097 310.767 734.602 314.248 738.324 322.263C778.356 408.543 777.866 507.287 736.978 593.17C733.184 601.143 723.639 604.53 715.666 600.736C713.967 599.926 712.481 598.861 711.225 597.605Z" fill="#001AA5"/>
<path d="M317.674 193.494C316.382 192.202 315.295 190.668 314.478 188.916C310.764 180.903 314.244 171.394 322.256 167.676C408.536 127.644 507.28 128.134 593.163 169.022C601.14 172.812 604.527 182.358 600.729 190.337C596.932 198.31 587.39 201.697 579.418 197.903C502.158 161.121 413.334 160.679 335.718 196.694C329.459 199.598 322.289 198.108 317.674 193.494Z" fill="#001AA5"/>
<path d="M170.872 588.322C169.58 587.03 168.493 585.497 167.676 583.744C127.644 497.464 128.134 398.72 169.022 312.837C172.819 304.864 182.361 301.474 190.334 305.271C198.303 309.065 201.693 318.607 197.899 326.583C161.118 403.842 160.675 492.666 196.69 570.282C200.405 578.294 196.924 587.804 188.912 591.522C182.656 594.423 175.483 592.933 170.872 588.322Z" fill="#001AA5"/>
<path d="M308.395 733.85C303.741 729.196 302.276 721.947 305.267 715.666C309.064 707.69 318.606 704.303 326.579 708.101C358.901 723.488 393.48 732.58 429.358 735.121C438.248 735.751 447.279 735.97 456.205 735.769C495.988 734.872 534.368 725.971 570.275 709.31C578.287 705.592 587.796 709.072 591.515 717.085C595.233 725.097 591.752 734.606 583.74 738.324C543.809 756.854 501.143 766.752 456.925 767.749C447.009 767.972 436.974 767.731 427.097 767.029C387.22 764.203 348.776 754.093 312.833 736.982C311.138 736.172 309.651 735.106 308.395 733.85Z" fill="#001AA5"/>
<path d="M713.845 214.784L569.53 359.095L546.897 336.463L563.807 319.596L591.356 292.047C523.415 233.601 427.079 225.208 350.961 266.87C344.73 270.26 337.017 269.202 332.018 264.156C324.473 256.612 326.255 243.895 335.62 238.81C423.862 190.492 535.793 200.707 613.992 269.368L672.82 210.54L691.256 192.144C691.511 197.824 693.797 203.461 698.163 207.87C702.486 212.2 708.126 214.532 713.845 214.784Z" fill="#001AA5"/>
<path d="M747.711 158.289C729.614 140.191 700.243 140.191 682.146 158.289C668.033 172.402 664.937 193.382 672.82 210.548C675.066 215.378 678.161 219.87 682.146 223.854C686.13 227.839 690.622 230.934 695.452 233.18C712.618 241.063 733.598 237.971 747.711 223.854C765.808 205.757 765.808 176.386 747.711 158.289ZM731.73 207.877C726.813 212.793 720.288 215.083 713.845 214.784C708.122 214.528 702.485 212.2 698.163 207.877C693.797 203.468 691.508 197.831 691.256 192.151C690.96 185.709 693.246 179.183 698.163 174.266C707.402 164.984 722.447 164.984 731.73 174.266C741.013 183.549 741.013 198.594 731.73 207.877Z" fill="#001AA5"/>
<path d="M570.466 667.263C537.28 685.486 500.11 695.788 461.413 697.101L461.33 697.188L454.718 697.27C420.6 697.526 387.458 690.785 356.18 677.352C332.701 667.18 311.17 653.492 292.011 636.622L214.748 713.885C214.535 708.162 212.246 702.525 207.841 698.163C203.475 693.754 197.838 691.465 192.115 691.256L210.551 672.86L269.335 614.076L292.011 591.4L319.56 563.851L336.47 546.898L341.894 552.322L353.466 563.894L359.102 569.53L342.106 586.483L314.643 613.946C330.959 627.976 349.1 639.418 368.853 647.938C395.045 659.254 422.807 665.06 451.371 665.272L454.549 665.229C490.193 664.974 524.481 655.99 554.953 639.249C561.226 635.816 568.983 636.834 574.025 641.877C581.57 649.421 579.788 662.094 570.466 667.263Z" fill="#001AA5"/>
<path d="M233.184 695.449C230.938 690.658 227.842 686.127 223.858 682.142C219.873 678.158 215.338 675.066 210.551 672.86C193.429 664.934 172.405 668.029 158.292 682.142C140.195 700.24 140.195 729.61 158.292 747.708C176.39 765.805 205.76 765.805 223.858 747.708C237.971 733.595 241.066 712.571 233.184 695.449ZM207.837 731.727C198.598 741.009 183.553 741.009 174.27 731.727C164.987 722.444 164.987 707.399 174.27 698.159C179.187 693.242 185.712 690.953 192.112 691.252C197.835 691.465 203.471 693.754 207.837 698.159C212.246 702.525 214.536 708.162 214.744 713.881C215.043 720.284 212.754 726.81 207.837 731.727Z" fill="#001AA5"/>
<path d="M302.903 302.942C263.231 342.614 241.149 395.42 240.728 451.537C240.515 480.738 246.494 510.321 258.062 537.151C260.733 543.295 263.616 549.273 266.794 555.079C270.228 561.309 269.127 569.023 264.123 574.026C256.579 581.613 243.866 579.749 238.737 570.38C235.052 563.725 231.701 556.861 228.649 549.824C215.173 518.546 208.474 485.36 208.773 451.285C209.198 392.076 230.556 336.089 269.339 291.968L192.159 214.788C197.882 214.532 203.518 212.203 207.841 207.881C212.25 203.471 214.539 197.835 214.748 192.155L233.184 210.551L314.644 292.011C310.616 295.481 306.714 299.127 302.903 302.942Z" fill="#001AA5"/>
<path d="M223.858 158.289C205.76 140.191 176.39 140.191 158.292 158.289C140.195 176.386 140.195 205.757 158.292 223.854C172.405 237.967 193.429 241.063 210.551 233.18C215.342 230.934 219.873 227.799 223.858 223.854C227.842 219.87 230.934 215.378 233.184 210.548C241.066 193.382 237.971 172.402 223.858 158.289ZM207.837 207.877C203.514 212.2 197.878 214.532 192.155 214.784C185.712 215.079 179.187 212.793 174.27 207.877C164.987 198.594 164.987 183.549 174.27 174.266C183.553 164.984 198.598 164.984 207.837 174.266C212.754 179.183 215.043 185.709 214.744 192.151C214.532 197.831 212.246 203.468 207.837 207.877Z" fill="#001AA5"/>
<path d="M713.845 691.252C708.165 691.465 702.529 693.754 698.123 698.159C693.8 702.482 691.468 708.119 691.216 713.842L591.32 613.946C595.388 610.512 599.289 606.869 603.061 603.097C671.254 534.904 683.29 431.532 639.17 350.918C637.856 348.503 637.219 345.875 637.219 343.247C637.219 339.137 638.788 335.066 641.88 331.974C649.381 324.473 662.097 326.212 667.183 335.534C715.544 423.775 705.329 535.794 636.625 614.032L695.409 672.816L713.845 691.252Z" fill="#001AA5"/>
<path d="M747.711 682.139C733.598 668.026 712.574 664.93 695.409 672.816C690.619 675.062 686.083 678.158 682.142 682.139C678.201 686.119 675.066 690.658 672.816 695.445C664.934 712.567 668.026 733.591 682.142 747.704C700.24 765.801 729.61 765.801 747.708 747.704C765.809 729.61 765.809 700.236 747.711 682.139ZM731.73 731.727C722.447 741.009 707.402 741.009 698.12 731.727C693.203 726.81 690.914 720.284 691.213 713.841C691.468 708.119 693.797 702.482 698.12 698.159C702.529 693.75 708.165 691.461 713.841 691.252C720.284 690.957 726.81 693.242 731.726 698.159C741.013 707.399 741.013 722.447 731.73 731.727Z" fill="#001AA5"/>
<path d="M586.4 342.229C579.619 334.008 572.032 326.421 563.811 319.596C533.76 294.549 495.15 279.504 453.023 279.504C357.364 279.504 279.507 357.317 279.507 453.02C279.507 493.919 293.62 532.741 319.56 563.85C322.695 567.623 326.003 571.269 329.476 574.828C333.504 578.939 337.74 582.84 342.106 586.483C356.093 598.138 371.815 607.464 388.981 614.288C409.367 622.426 430.898 626.493 453.02 626.493C475.102 626.493 496.633 622.426 517.016 614.288C539.522 605.387 559.527 592.08 576.563 574.828L581.141 570.124V569.955C610.429 537.914 626.489 496.676 626.489 453.02C626.493 410.933 611.448 372.323 586.4 342.229ZM505.239 584.575C488.624 591.187 471.034 594.535 453.023 594.535C434.969 594.535 417.379 591.187 400.765 584.575C389.934 580.26 379.572 574.551 370.091 567.659C384.87 535.214 416.983 514.367 452.825 514.299C452.879 514.299 452.93 514.306 452.98 514.306H453.023C453.074 514.306 453.124 514.299 453.178 514.299C489.024 514.367 521.155 535.239 535.956 567.716C526.504 574.576 516.21 580.213 505.239 584.575ZM423.692 453.02C423.692 436.83 436.83 423.693 453.02 423.693C469.166 423.693 482.308 436.83 482.308 453.02C482.308 460.776 479.298 468.065 473.874 473.576L473.406 474.044C470.653 476.714 467.345 478.874 463.829 480.274C460.355 481.631 456.666 482.308 452.98 482.308C449.294 482.308 445.605 481.631 442.171 480.274C438.443 478.791 434.966 476.459 432.126 473.576C426.702 468.065 423.692 460.733 423.692 453.02ZM560.377 545.073C560.366 545.084 560.355 545.098 560.345 545.109C546.753 520.925 525.647 502.403 500.689 491.939L500.747 491.882L501.254 491.374V490.824C509.688 480.058 514.309 466.877 514.309 453.016C514.309 419.193 486.803 391.687 453.023 391.687C419.201 391.687 391.694 419.193 391.694 453.016C391.694 467.298 396.568 480.861 405.512 491.796C405.523 491.81 405.534 491.821 405.545 491.831C380.465 502.28 359.264 520.856 345.645 545.134C345.637 545.127 345.63 545.12 345.623 545.109C323.541 519.467 311.505 487.127 311.505 453.009C311.505 374.94 374.994 311.451 453.02 311.451C531.046 311.451 594.495 374.94 594.495 453.009C594.495 487.138 582.502 519.474 560.377 545.073Z" fill="#001AA5"/>
</svg>
